G75*
%MOIN*%
%OFA0B0*%
%FSLAX25Y25*%
%IPPOS*%
%LPD*%
%AMOC8*
5,1,8,0,0,1.08239X$1,22.5*
%
%ADD10R,0.04737X0.05131*%
%ADD11C,0.01421*%
%ADD12R,0.18910X0.04737*%
%ADD13R,0.14186X0.07099*%
%ADD14R,0.06509X0.01981*%
%ADD15R,0.06509X0.03162*%
%ADD16R,0.06509X0.02965*%
%ADD17C,0.03359*%
%ADD18C,0.00039*%
%ADD19C,0.01522*%
%ADD20R,0.05131X0.04737*%
%ADD21R,0.13398X0.07887*%
%ADD22C,0.00594*%
%ADD23C,0.01561*%
%ADD24C,0.05950*%
%ADD25R,0.12611X0.08674*%
%ADD26C,0.14973*%
%ADD27C,0.00771*%
%ADD28C,0.04369*%
D10*
X0029973Y0090000D03*
X0036666Y0090000D03*
X0023320Y0099654D03*
X0023320Y0106346D03*
X0049320Y0107654D03*
X0049320Y0114346D03*
X0071973Y0115000D03*
X0078666Y0115000D03*
X0154320Y0116654D03*
X0154320Y0123346D03*
X0154320Y0108346D03*
X0154320Y0101654D03*
X0206320Y0039346D03*
X0206320Y0032654D03*
X0207666Y0023000D03*
X0200973Y0023000D03*
X0156320Y0020654D03*
X0156320Y0027346D03*
D11*
X0080431Y0103342D02*
X0080431Y0106658D01*
X0080431Y0103342D02*
X0077115Y0103342D01*
X0077115Y0106658D01*
X0080431Y0106658D01*
X0080431Y0104762D02*
X0077115Y0104762D01*
X0077115Y0106182D02*
X0080431Y0106182D01*
X0073525Y0106658D02*
X0073525Y0103342D01*
X0070209Y0103342D01*
X0070209Y0106658D01*
X0073525Y0106658D01*
X0073525Y0104762D02*
X0070209Y0104762D01*
X0070209Y0106182D02*
X0073525Y0106182D01*
D12*
X0186753Y0107063D03*
X0186753Y0114937D03*
D13*
X0207225Y0124386D03*
X0207225Y0097614D03*
D14*
X0191320Y0072890D03*
X0191320Y0070921D03*
X0191320Y0068953D03*
X0191320Y0066984D03*
X0191320Y0065016D03*
X0191320Y0063047D03*
X0191320Y0061079D03*
X0191320Y0059110D03*
D15*
X0191320Y0053303D03*
X0191320Y0078697D03*
D16*
X0191320Y0075646D03*
X0191320Y0056354D03*
D17*
X0197009Y0054622D03*
X0197009Y0077378D03*
D18*
X0197304Y0080646D02*
X0192580Y0080646D01*
X0192138Y0080707D01*
X0191716Y0080853D01*
X0191332Y0081078D01*
X0190998Y0081374D01*
X0190729Y0081730D01*
X0190534Y0082131D01*
X0190421Y0082563D01*
X0190395Y0083008D01*
X0190432Y0083516D01*
X0190581Y0084003D01*
X0190836Y0084445D01*
X0191182Y0084819D01*
X0191602Y0085106D01*
X0192076Y0085293D01*
X0192580Y0085370D01*
X0197304Y0085370D01*
X0197803Y0085289D01*
X0198271Y0085100D01*
X0198686Y0084811D01*
X0199026Y0084437D01*
X0199274Y0083997D01*
X0199417Y0083512D01*
X0199450Y0083008D01*
X0199417Y0082504D01*
X0199274Y0082019D01*
X0199026Y0081579D01*
X0198686Y0081205D01*
X0198271Y0080916D01*
X0197803Y0080726D01*
X0197304Y0080646D01*
X0197421Y0080665D02*
X0192443Y0080665D01*
X0192168Y0080702D02*
X0197656Y0080702D01*
X0197838Y0080740D02*
X0192041Y0080740D01*
X0191931Y0080778D02*
X0197931Y0080778D01*
X0198025Y0080816D02*
X0191822Y0080816D01*
X0191714Y0080854D02*
X0198119Y0080854D01*
X0198212Y0080892D02*
X0191649Y0080892D01*
X0191585Y0080930D02*
X0198291Y0080930D01*
X0198346Y0080968D02*
X0191520Y0080968D01*
X0191455Y0081006D02*
X0198400Y0081006D01*
X0198454Y0081043D02*
X0191391Y0081043D01*
X0191328Y0081081D02*
X0198509Y0081081D01*
X0198563Y0081119D02*
X0191285Y0081119D01*
X0191243Y0081157D02*
X0198617Y0081157D01*
X0198672Y0081195D02*
X0191200Y0081195D01*
X0191157Y0081233D02*
X0198711Y0081233D01*
X0198746Y0081271D02*
X0191115Y0081271D01*
X0191072Y0081309D02*
X0198780Y0081309D01*
X0198814Y0081346D02*
X0191029Y0081346D01*
X0190990Y0081384D02*
X0198849Y0081384D01*
X0198883Y0081422D02*
X0190962Y0081422D01*
X0190933Y0081460D02*
X0198918Y0081460D01*
X0198952Y0081498D02*
X0190904Y0081498D01*
X0190876Y0081536D02*
X0198987Y0081536D01*
X0199021Y0081574D02*
X0190847Y0081574D01*
X0190818Y0081612D02*
X0199044Y0081612D01*
X0199065Y0081649D02*
X0190790Y0081649D01*
X0190761Y0081687D02*
X0199087Y0081687D01*
X0199108Y0081725D02*
X0190732Y0081725D01*
X0190713Y0081763D02*
X0199129Y0081763D01*
X0199151Y0081801D02*
X0190694Y0081801D01*
X0190676Y0081839D02*
X0199172Y0081839D01*
X0199193Y0081877D02*
X0190657Y0081877D01*
X0190639Y0081915D02*
X0199215Y0081915D01*
X0199236Y0081953D02*
X0190621Y0081953D01*
X0190602Y0081990D02*
X0199257Y0081990D01*
X0199276Y0082028D02*
X0190584Y0082028D01*
X0190565Y0082066D02*
X0199288Y0082066D01*
X0199299Y0082104D02*
X0190547Y0082104D01*
X0190531Y0082142D02*
X0199310Y0082142D01*
X0199321Y0082180D02*
X0190521Y0082180D01*
X0190511Y0082218D02*
X0199333Y0082218D01*
X0199344Y0082256D02*
X0190501Y0082256D01*
X0190491Y0082293D02*
X0199355Y0082293D01*
X0199366Y0082331D02*
X0190482Y0082331D01*
X0190472Y0082369D02*
X0199378Y0082369D01*
X0199389Y0082407D02*
X0190462Y0082407D01*
X0190452Y0082445D02*
X0199400Y0082445D01*
X0199411Y0082483D02*
X0190442Y0082483D01*
X0190432Y0082521D02*
X0199419Y0082521D01*
X0199421Y0082559D02*
X0190422Y0082559D01*
X0190419Y0082597D02*
X0199423Y0082597D01*
X0199426Y0082634D02*
X0190417Y0082634D01*
X0190415Y0082672D02*
X0199428Y0082672D01*
X0199431Y0082710D02*
X0190412Y0082710D01*
X0190410Y0082748D02*
X0199433Y0082748D01*
X0199436Y0082786D02*
X0190408Y0082786D01*
X0190406Y0082824D02*
X0199438Y0082824D01*
X0199440Y0082862D02*
X0190403Y0082862D01*
X0190401Y0082900D02*
X0199443Y0082900D01*
X0199445Y0082937D02*
X0190399Y0082937D01*
X0190397Y0082975D02*
X0199448Y0082975D01*
X0199450Y0083013D02*
X0190395Y0083013D01*
X0190398Y0083051D02*
X0199447Y0083051D01*
X0199445Y0083089D02*
X0190401Y0083089D01*
X0190403Y0083127D02*
X0199442Y0083127D01*
X0199440Y0083165D02*
X0190406Y0083165D01*
X0190409Y0083203D02*
X0199437Y0083203D01*
X0199435Y0083241D02*
X0190412Y0083241D01*
X0190415Y0083278D02*
X0199432Y0083278D01*
X0199430Y0083316D02*
X0190417Y0083316D01*
X0190420Y0083354D02*
X0199428Y0083354D01*
X0199425Y0083392D02*
X0190423Y0083392D01*
X0190426Y0083430D02*
X0199423Y0083430D01*
X0199420Y0083468D02*
X0190429Y0083468D01*
X0190431Y0083506D02*
X0199418Y0083506D01*
X0199408Y0083544D02*
X0190440Y0083544D01*
X0190452Y0083581D02*
X0199397Y0083581D01*
X0199386Y0083619D02*
X0190464Y0083619D01*
X0190475Y0083657D02*
X0199374Y0083657D01*
X0199363Y0083695D02*
X0190487Y0083695D01*
X0190499Y0083733D02*
X0199352Y0083733D01*
X0199341Y0083771D02*
X0190510Y0083771D01*
X0190522Y0083809D02*
X0199329Y0083809D01*
X0199318Y0083847D02*
X0190533Y0083847D01*
X0190545Y0083884D02*
X0199307Y0083884D01*
X0199296Y0083922D02*
X0190557Y0083922D01*
X0190568Y0083960D02*
X0199284Y0083960D01*
X0199273Y0083998D02*
X0190580Y0083998D01*
X0190600Y0084036D02*
X0199251Y0084036D01*
X0199230Y0084074D02*
X0190622Y0084074D01*
X0190644Y0084112D02*
X0199209Y0084112D01*
X0199187Y0084150D02*
X0190666Y0084150D01*
X0190688Y0084188D02*
X0199166Y0084188D01*
X0199145Y0084225D02*
X0190709Y0084225D01*
X0190731Y0084263D02*
X0199123Y0084263D01*
X0199102Y0084301D02*
X0190753Y0084301D01*
X0190775Y0084339D02*
X0199081Y0084339D01*
X0199059Y0084377D02*
X0190797Y0084377D01*
X0190818Y0084415D02*
X0199038Y0084415D01*
X0199011Y0084453D02*
X0190843Y0084453D01*
X0190878Y0084491D02*
X0198977Y0084491D01*
X0198942Y0084528D02*
X0190913Y0084528D01*
X0190948Y0084566D02*
X0198908Y0084566D01*
X0198874Y0084604D02*
X0190983Y0084604D01*
X0191018Y0084642D02*
X0198839Y0084642D01*
X0198805Y0084680D02*
X0191053Y0084680D01*
X0191088Y0084718D02*
X0198770Y0084718D01*
X0198736Y0084756D02*
X0191123Y0084756D01*
X0191158Y0084794D02*
X0198701Y0084794D01*
X0198656Y0084832D02*
X0191200Y0084832D01*
X0191256Y0084869D02*
X0198602Y0084869D01*
X0198548Y0084907D02*
X0191311Y0084907D01*
X0191366Y0084945D02*
X0198493Y0084945D01*
X0198439Y0084983D02*
X0191422Y0084983D01*
X0191477Y0085021D02*
X0198385Y0085021D01*
X0198330Y0085059D02*
X0191532Y0085059D01*
X0191588Y0085097D02*
X0198276Y0085097D01*
X0198186Y0085135D02*
X0191673Y0085135D01*
X0191769Y0085172D02*
X0198092Y0085172D01*
X0197999Y0085210D02*
X0191866Y0085210D01*
X0191962Y0085248D02*
X0197905Y0085248D01*
X0197811Y0085286D02*
X0192058Y0085286D01*
X0192277Y0085324D02*
X0197589Y0085324D01*
X0197355Y0085362D02*
X0192526Y0085362D01*
X0207883Y0083470D02*
X0207836Y0083008D01*
X0207897Y0082480D01*
X0208075Y0081980D01*
X0208359Y0081531D01*
X0208737Y0081157D01*
X0214032Y0081157D01*
X0214044Y0081165D02*
X0213599Y0080883D01*
X0213103Y0080707D01*
X0212580Y0080646D01*
X0210218Y0080646D01*
X0209690Y0080703D01*
X0209187Y0080876D01*
X0208737Y0081157D01*
X0208698Y0081195D02*
X0214074Y0081195D01*
X0214044Y0081165D02*
X0214415Y0081539D01*
X0214694Y0081986D01*
X0214866Y0082484D01*
X0214922Y0083008D01*
X0214879Y0083467D01*
X0214747Y0083909D01*
X0214531Y0084316D01*
X0214240Y0084674D01*
X0213885Y0084968D01*
X0213479Y0085187D01*
X0213039Y0085323D01*
X0212580Y0085370D01*
X0210218Y0085370D01*
X0209755Y0085326D01*
X0209309Y0085193D01*
X0208898Y0084976D01*
X0208537Y0084682D01*
X0208241Y0084324D01*
X0208020Y0083915D01*
X0207883Y0083470D01*
X0207883Y0083468D02*
X0214879Y0083468D01*
X0214883Y0083430D02*
X0207879Y0083430D01*
X0207875Y0083392D02*
X0214886Y0083392D01*
X0214890Y0083354D02*
X0207871Y0083354D01*
X0207867Y0083316D02*
X0214893Y0083316D01*
X0214897Y0083278D02*
X0207863Y0083278D01*
X0207860Y0083241D02*
X0214900Y0083241D01*
X0214904Y0083203D02*
X0207856Y0083203D01*
X0207852Y0083165D02*
X0214908Y0083165D01*
X0214911Y0083127D02*
X0207848Y0083127D01*
X0207844Y0083089D02*
X0214915Y0083089D01*
X0214918Y0083051D02*
X0207840Y0083051D01*
X0207836Y0083013D02*
X0214922Y0083013D01*
X0214919Y0082975D02*
X0207840Y0082975D01*
X0207844Y0082937D02*
X0214915Y0082937D01*
X0214911Y0082900D02*
X0207848Y0082900D01*
X0207853Y0082862D02*
X0214906Y0082862D01*
X0214902Y0082824D02*
X0207857Y0082824D01*
X0207862Y0082786D02*
X0214898Y0082786D01*
X0214894Y0082748D02*
X0207866Y0082748D01*
X0207871Y0082710D02*
X0214890Y0082710D01*
X0214886Y0082672D02*
X0207875Y0082672D01*
X0207879Y0082634D02*
X0214882Y0082634D01*
X0214878Y0082597D02*
X0207884Y0082597D01*
X0207888Y0082559D02*
X0214874Y0082559D01*
X0214870Y0082521D02*
X0207893Y0082521D01*
X0207897Y0082483D02*
X0214865Y0082483D01*
X0214852Y0082445D02*
X0207910Y0082445D01*
X0207923Y0082407D02*
X0214839Y0082407D01*
X0214826Y0082369D02*
X0207937Y0082369D01*
X0207950Y0082331D02*
X0214813Y0082331D01*
X0214800Y0082293D02*
X0207964Y0082293D01*
X0207977Y0082256D02*
X0214787Y0082256D01*
X0214774Y0082218D02*
X0207990Y0082218D01*
X0208004Y0082180D02*
X0214760Y0082180D01*
X0214747Y0082142D02*
X0208017Y0082142D01*
X0208031Y0082104D02*
X0214734Y0082104D01*
X0214721Y0082066D02*
X0208044Y0082066D01*
X0208058Y0082028D02*
X0214708Y0082028D01*
X0214695Y0081990D02*
X0208071Y0081990D01*
X0208092Y0081953D02*
X0214673Y0081953D01*
X0214649Y0081915D02*
X0208116Y0081915D01*
X0208140Y0081877D02*
X0214625Y0081877D01*
X0214602Y0081839D02*
X0208164Y0081839D01*
X0208188Y0081801D02*
X0214578Y0081801D01*
X0214555Y0081763D02*
X0208212Y0081763D01*
X0208236Y0081725D02*
X0214531Y0081725D01*
X0214508Y0081687D02*
X0208260Y0081687D01*
X0208284Y0081649D02*
X0214484Y0081649D01*
X0214460Y0081612D02*
X0208308Y0081612D01*
X0208332Y0081574D02*
X0214437Y0081574D01*
X0214412Y0081536D02*
X0208356Y0081536D01*
X0208393Y0081498D02*
X0214375Y0081498D01*
X0214337Y0081460D02*
X0208431Y0081460D01*
X0208469Y0081422D02*
X0214299Y0081422D01*
X0214262Y0081384D02*
X0208507Y0081384D01*
X0208546Y0081346D02*
X0214224Y0081346D01*
X0214187Y0081309D02*
X0208584Y0081309D01*
X0208622Y0081271D02*
X0214149Y0081271D01*
X0214112Y0081233D02*
X0208660Y0081233D01*
X0208797Y0081119D02*
X0213972Y0081119D01*
X0213912Y0081081D02*
X0208858Y0081081D01*
X0208919Y0081043D02*
X0213853Y0081043D01*
X0213793Y0081006D02*
X0208980Y0081006D01*
X0209041Y0080968D02*
X0213733Y0080968D01*
X0213673Y0080930D02*
X0209102Y0080930D01*
X0209162Y0080892D02*
X0213614Y0080892D01*
X0213518Y0080854D02*
X0209252Y0080854D01*
X0209362Y0080816D02*
X0213411Y0080816D01*
X0213304Y0080778D02*
X0209472Y0080778D01*
X0209581Y0080740D02*
X0213197Y0080740D01*
X0213066Y0080702D02*
X0209694Y0080702D01*
X0210043Y0080665D02*
X0212742Y0080665D01*
X0214867Y0083506D02*
X0207894Y0083506D01*
X0207906Y0083544D02*
X0214856Y0083544D01*
X0214845Y0083581D02*
X0207917Y0083581D01*
X0207929Y0083619D02*
X0214834Y0083619D01*
X0214822Y0083657D02*
X0207941Y0083657D01*
X0207952Y0083695D02*
X0214811Y0083695D01*
X0214800Y0083733D02*
X0207964Y0083733D01*
X0207976Y0083771D02*
X0214788Y0083771D01*
X0214777Y0083809D02*
X0207987Y0083809D01*
X0207999Y0083847D02*
X0214766Y0083847D01*
X0214754Y0083884D02*
X0208011Y0083884D01*
X0208024Y0083922D02*
X0214740Y0083922D01*
X0214720Y0083960D02*
X0208045Y0083960D01*
X0208065Y0083998D02*
X0214700Y0083998D01*
X0214680Y0084036D02*
X0208085Y0084036D01*
X0208106Y0084074D02*
X0214660Y0084074D01*
X0214640Y0084112D02*
X0208126Y0084112D01*
X0208147Y0084150D02*
X0214620Y0084150D01*
X0214600Y0084188D02*
X0208167Y0084188D01*
X0208188Y0084225D02*
X0214579Y0084225D01*
X0214559Y0084263D02*
X0208208Y0084263D01*
X0208229Y0084301D02*
X0214539Y0084301D01*
X0214513Y0084339D02*
X0208253Y0084339D01*
X0208285Y0084377D02*
X0214482Y0084377D01*
X0214451Y0084415D02*
X0208316Y0084415D01*
X0208347Y0084453D02*
X0214420Y0084453D01*
X0214390Y0084491D02*
X0208379Y0084491D01*
X0208410Y0084528D02*
X0214359Y0084528D01*
X0214328Y0084566D02*
X0208441Y0084566D01*
X0208473Y0084604D02*
X0214297Y0084604D01*
X0214266Y0084642D02*
X0208504Y0084642D01*
X0208536Y0084680D02*
X0214233Y0084680D01*
X0214187Y0084718D02*
X0208581Y0084718D01*
X0208628Y0084756D02*
X0214142Y0084756D01*
X0214096Y0084794D02*
X0208674Y0084794D01*
X0208721Y0084832D02*
X0214050Y0084832D01*
X0214004Y0084869D02*
X0208767Y0084869D01*
X0208814Y0084907D02*
X0213959Y0084907D01*
X0213913Y0084945D02*
X0208860Y0084945D01*
X0208912Y0084983D02*
X0213857Y0084983D01*
X0213787Y0085021D02*
X0208983Y0085021D01*
X0209055Y0085059D02*
X0213717Y0085059D01*
X0213647Y0085097D02*
X0209127Y0085097D01*
X0209198Y0085135D02*
X0213577Y0085135D01*
X0213507Y0085172D02*
X0209270Y0085172D01*
X0209366Y0085210D02*
X0213404Y0085210D01*
X0213281Y0085248D02*
X0209493Y0085248D01*
X0209620Y0085286D02*
X0213158Y0085286D01*
X0213028Y0085324D02*
X0209747Y0085324D01*
X0210131Y0085362D02*
X0212660Y0085362D01*
X0212580Y0051354D02*
X0210218Y0051354D01*
X0209755Y0051311D01*
X0209309Y0051178D01*
X0208898Y0050960D01*
X0208537Y0050667D01*
X0208241Y0050308D01*
X0208020Y0049899D01*
X0207883Y0049455D01*
X0207836Y0048992D01*
X0207897Y0048465D01*
X0214864Y0048465D01*
X0214866Y0048468D02*
X0214694Y0047970D01*
X0214415Y0047523D01*
X0214044Y0047149D01*
X0213599Y0046867D01*
X0213103Y0046691D01*
X0212580Y0046630D01*
X0210218Y0046630D01*
X0209690Y0046687D01*
X0209187Y0046861D01*
X0208737Y0047141D01*
X0208359Y0047515D01*
X0208075Y0047964D01*
X0207897Y0048465D01*
X0207893Y0048503D02*
X0214869Y0048503D01*
X0214866Y0048468D02*
X0214922Y0048992D01*
X0214879Y0049451D01*
X0214747Y0049893D01*
X0214531Y0050301D01*
X0214240Y0050658D01*
X0213885Y0050952D01*
X0213479Y0051172D01*
X0213039Y0051307D01*
X0212580Y0051354D01*
X0212677Y0051344D02*
X0210112Y0051344D01*
X0209741Y0051306D02*
X0213041Y0051306D01*
X0213164Y0051269D02*
X0209614Y0051269D01*
X0209487Y0051231D02*
X0213287Y0051231D01*
X0213410Y0051193D02*
X0209360Y0051193D01*
X0209266Y0051155D02*
X0213510Y0051155D01*
X0213580Y0051117D02*
X0209195Y0051117D01*
X0209123Y0051079D02*
X0213650Y0051079D01*
X0213720Y0051041D02*
X0209052Y0051041D01*
X0208980Y0051003D02*
X0213791Y0051003D01*
X0213861Y0050966D02*
X0208909Y0050966D01*
X0208858Y0050928D02*
X0213915Y0050928D01*
X0213961Y0050890D02*
X0208812Y0050890D01*
X0208765Y0050852D02*
X0214006Y0050852D01*
X0214052Y0050814D02*
X0208719Y0050814D01*
X0208672Y0050776D02*
X0214098Y0050776D01*
X0214144Y0050738D02*
X0208626Y0050738D01*
X0208579Y0050700D02*
X0214190Y0050700D01*
X0214235Y0050663D02*
X0208534Y0050663D01*
X0208503Y0050625D02*
X0214268Y0050625D01*
X0214299Y0050587D02*
X0208471Y0050587D01*
X0208440Y0050549D02*
X0214329Y0050549D01*
X0214360Y0050511D02*
X0208409Y0050511D01*
X0208377Y0050473D02*
X0214391Y0050473D01*
X0214422Y0050435D02*
X0208346Y0050435D01*
X0208315Y0050397D02*
X0214453Y0050397D01*
X0214484Y0050359D02*
X0208283Y0050359D01*
X0208252Y0050322D02*
X0214514Y0050322D01*
X0214540Y0050284D02*
X0208228Y0050284D01*
X0208207Y0050246D02*
X0214560Y0050246D01*
X0214580Y0050208D02*
X0208187Y0050208D01*
X0208166Y0050170D02*
X0214600Y0050170D01*
X0214620Y0050132D02*
X0208146Y0050132D01*
X0208125Y0050094D02*
X0214641Y0050094D01*
X0214661Y0050056D02*
X0208105Y0050056D01*
X0208084Y0050019D02*
X0214681Y0050019D01*
X0214701Y0049981D02*
X0208064Y0049981D01*
X0208044Y0049943D02*
X0214721Y0049943D01*
X0214741Y0049905D02*
X0208023Y0049905D01*
X0208010Y0049867D02*
X0214755Y0049867D01*
X0214766Y0049829D02*
X0207998Y0049829D01*
X0207987Y0049791D02*
X0214777Y0049791D01*
X0214789Y0049753D02*
X0207975Y0049753D01*
X0207963Y0049715D02*
X0214800Y0049715D01*
X0214811Y0049678D02*
X0207952Y0049678D01*
X0207940Y0049640D02*
X0214823Y0049640D01*
X0214834Y0049602D02*
X0207928Y0049602D01*
X0207917Y0049564D02*
X0214845Y0049564D01*
X0214857Y0049526D02*
X0207905Y0049526D01*
X0207894Y0049488D02*
X0214868Y0049488D01*
X0214879Y0049450D02*
X0207883Y0049450D01*
X0207879Y0049412D02*
X0214883Y0049412D01*
X0214886Y0049375D02*
X0207875Y0049375D01*
X0207871Y0049337D02*
X0214890Y0049337D01*
X0214893Y0049299D02*
X0207867Y0049299D01*
X0207863Y0049261D02*
X0214897Y0049261D01*
X0214901Y0049223D02*
X0207859Y0049223D01*
X0207856Y0049185D02*
X0214904Y0049185D01*
X0214908Y0049147D02*
X0207852Y0049147D01*
X0207848Y0049109D02*
X0214911Y0049109D01*
X0214915Y0049071D02*
X0207844Y0049071D01*
X0207840Y0049034D02*
X0214918Y0049034D01*
X0214922Y0048996D02*
X0207836Y0048996D01*
X0207840Y0048958D02*
X0214919Y0048958D01*
X0214914Y0048920D02*
X0207844Y0048920D01*
X0207849Y0048882D02*
X0214910Y0048882D01*
X0214906Y0048844D02*
X0207853Y0048844D01*
X0207857Y0048806D02*
X0214902Y0048806D01*
X0214898Y0048768D02*
X0207862Y0048768D01*
X0207866Y0048731D02*
X0214894Y0048731D01*
X0214890Y0048693D02*
X0207871Y0048693D01*
X0207875Y0048655D02*
X0214886Y0048655D01*
X0214882Y0048617D02*
X0207880Y0048617D01*
X0207884Y0048579D02*
X0214878Y0048579D01*
X0214873Y0048541D02*
X0207888Y0048541D01*
X0207911Y0048428D02*
X0214851Y0048428D01*
X0214838Y0048390D02*
X0207924Y0048390D01*
X0207937Y0048352D02*
X0214825Y0048352D01*
X0214812Y0048314D02*
X0207951Y0048314D01*
X0207964Y0048276D02*
X0214799Y0048276D01*
X0214786Y0048238D02*
X0207978Y0048238D01*
X0207991Y0048200D02*
X0214773Y0048200D01*
X0214760Y0048162D02*
X0208005Y0048162D01*
X0208018Y0048124D02*
X0214747Y0048124D01*
X0214734Y0048087D02*
X0208031Y0048087D01*
X0208045Y0048049D02*
X0214721Y0048049D01*
X0214708Y0048011D02*
X0208058Y0048011D01*
X0208072Y0047973D02*
X0214694Y0047973D01*
X0214672Y0047935D02*
X0208093Y0047935D01*
X0208117Y0047897D02*
X0214648Y0047897D01*
X0214624Y0047859D02*
X0208141Y0047859D01*
X0208165Y0047821D02*
X0214601Y0047821D01*
X0214577Y0047784D02*
X0208189Y0047784D01*
X0208213Y0047746D02*
X0214554Y0047746D01*
X0214530Y0047708D02*
X0208237Y0047708D01*
X0208261Y0047670D02*
X0214506Y0047670D01*
X0214483Y0047632D02*
X0208285Y0047632D01*
X0208309Y0047594D02*
X0214459Y0047594D01*
X0214436Y0047556D02*
X0208333Y0047556D01*
X0208357Y0047518D02*
X0214410Y0047518D01*
X0214373Y0047480D02*
X0208395Y0047480D01*
X0208433Y0047443D02*
X0214335Y0047443D01*
X0214298Y0047405D02*
X0208471Y0047405D01*
X0208509Y0047367D02*
X0214260Y0047367D01*
X0214223Y0047329D02*
X0208547Y0047329D01*
X0208585Y0047291D02*
X0214185Y0047291D01*
X0214147Y0047253D02*
X0208624Y0047253D01*
X0208662Y0047215D02*
X0214110Y0047215D01*
X0214072Y0047177D02*
X0208700Y0047177D01*
X0208739Y0047140D02*
X0214029Y0047140D01*
X0213969Y0047102D02*
X0208800Y0047102D01*
X0208861Y0047064D02*
X0213910Y0047064D01*
X0213850Y0047026D02*
X0208922Y0047026D01*
X0208983Y0046988D02*
X0213790Y0046988D01*
X0213730Y0046950D02*
X0209044Y0046950D01*
X0209104Y0046912D02*
X0213671Y0046912D01*
X0213611Y0046874D02*
X0209165Y0046874D01*
X0209257Y0046836D02*
X0213513Y0046836D01*
X0213406Y0046799D02*
X0209367Y0046799D01*
X0209477Y0046761D02*
X0213299Y0046761D01*
X0213193Y0046723D02*
X0209586Y0046723D01*
X0209710Y0046685D02*
X0213051Y0046685D01*
X0212727Y0046647D02*
X0210059Y0046647D01*
X0199417Y0048488D02*
X0199274Y0048003D01*
X0199026Y0047563D01*
X0198686Y0047189D01*
X0198271Y0046900D01*
X0197803Y0046711D01*
X0197304Y0046630D01*
X0192580Y0046630D01*
X0192138Y0046691D01*
X0191716Y0046837D01*
X0191332Y0047062D01*
X0190998Y0047358D01*
X0190729Y0047714D01*
X0190534Y0048115D01*
X0190421Y0048547D01*
X0190395Y0048992D01*
X0190432Y0049500D01*
X0190581Y0049987D01*
X0190836Y0050429D01*
X0191182Y0050803D01*
X0191602Y0051091D01*
X0192076Y0051278D01*
X0192580Y0051354D01*
X0197304Y0051354D01*
X0197803Y0051274D01*
X0198271Y0051084D01*
X0198686Y0050795D01*
X0199026Y0050421D01*
X0199274Y0049981D01*
X0199417Y0049496D01*
X0199450Y0048992D01*
X0199417Y0048488D01*
X0199418Y0048503D02*
X0190433Y0048503D01*
X0190442Y0048465D02*
X0199411Y0048465D01*
X0199400Y0048428D02*
X0190452Y0048428D01*
X0190462Y0048390D02*
X0199388Y0048390D01*
X0199377Y0048352D02*
X0190472Y0048352D01*
X0190482Y0048314D02*
X0199366Y0048314D01*
X0199355Y0048276D02*
X0190492Y0048276D01*
X0190502Y0048238D02*
X0199343Y0048238D01*
X0199332Y0048200D02*
X0190512Y0048200D01*
X0190522Y0048162D02*
X0199321Y0048162D01*
X0199310Y0048124D02*
X0190532Y0048124D01*
X0190548Y0048087D02*
X0199298Y0048087D01*
X0199287Y0048049D02*
X0190566Y0048049D01*
X0190585Y0048011D02*
X0199276Y0048011D01*
X0199256Y0047973D02*
X0190603Y0047973D01*
X0190621Y0047935D02*
X0199235Y0047935D01*
X0199214Y0047897D02*
X0190640Y0047897D01*
X0190658Y0047859D02*
X0199192Y0047859D01*
X0199171Y0047821D02*
X0190677Y0047821D01*
X0190695Y0047784D02*
X0199150Y0047784D01*
X0199128Y0047746D02*
X0190713Y0047746D01*
X0190733Y0047708D02*
X0199107Y0047708D01*
X0199086Y0047670D02*
X0190762Y0047670D01*
X0190791Y0047632D02*
X0199064Y0047632D01*
X0199043Y0047594D02*
X0190820Y0047594D01*
X0190848Y0047556D02*
X0199019Y0047556D01*
X0198985Y0047518D02*
X0190877Y0047518D01*
X0190906Y0047480D02*
X0198951Y0047480D01*
X0198916Y0047443D02*
X0190934Y0047443D01*
X0190963Y0047405D02*
X0198882Y0047405D01*
X0198847Y0047367D02*
X0190992Y0047367D01*
X0191031Y0047329D02*
X0198813Y0047329D01*
X0198778Y0047291D02*
X0191074Y0047291D01*
X0191117Y0047253D02*
X0198744Y0047253D01*
X0198710Y0047215D02*
X0191159Y0047215D01*
X0191202Y0047177D02*
X0198669Y0047177D01*
X0198615Y0047140D02*
X0191245Y0047140D01*
X0191287Y0047102D02*
X0198560Y0047102D01*
X0198506Y0047064D02*
X0191330Y0047064D01*
X0191394Y0047026D02*
X0198452Y0047026D01*
X0198397Y0046988D02*
X0191458Y0046988D01*
X0191523Y0046950D02*
X0198343Y0046950D01*
X0198289Y0046912D02*
X0191588Y0046912D01*
X0191652Y0046874D02*
X0198208Y0046874D01*
X0198114Y0046836D02*
X0191718Y0046836D01*
X0191827Y0046799D02*
X0198021Y0046799D01*
X0197927Y0046761D02*
X0191936Y0046761D01*
X0192046Y0046723D02*
X0197834Y0046723D01*
X0197645Y0046685D02*
X0192181Y0046685D01*
X0192455Y0046647D02*
X0197410Y0046647D01*
X0199421Y0048541D02*
X0190423Y0048541D01*
X0190419Y0048579D02*
X0199423Y0048579D01*
X0199426Y0048617D02*
X0190417Y0048617D01*
X0190415Y0048655D02*
X0199428Y0048655D01*
X0199431Y0048693D02*
X0190413Y0048693D01*
X0190410Y0048731D02*
X0199433Y0048731D01*
X0199436Y0048768D02*
X0190408Y0048768D01*
X0190406Y0048806D02*
X0199438Y0048806D01*
X0199440Y0048844D02*
X0190404Y0048844D01*
X0190401Y0048882D02*
X0199443Y0048882D01*
X0199445Y0048920D02*
X0190399Y0048920D01*
X0190397Y0048958D02*
X0199448Y0048958D01*
X0199450Y0048996D02*
X0190395Y0048996D01*
X0190398Y0049034D02*
X0199447Y0049034D01*
X0199445Y0049071D02*
X0190401Y0049071D01*
X0190403Y0049109D02*
X0199442Y0049109D01*
X0199440Y0049147D02*
X0190406Y0049147D01*
X0190409Y0049185D02*
X0199437Y0049185D01*
X0199435Y0049223D02*
X0190412Y0049223D01*
X0190414Y0049261D02*
X0199433Y0049261D01*
X0199430Y0049299D02*
X0190417Y0049299D01*
X0190420Y0049337D02*
X0199428Y0049337D01*
X0199425Y0049375D02*
X0190423Y0049375D01*
X0190426Y0049412D02*
X0199423Y0049412D01*
X0199420Y0049450D02*
X0190428Y0049450D01*
X0190431Y0049488D02*
X0199418Y0049488D01*
X0199409Y0049526D02*
X0190440Y0049526D01*
X0190452Y0049564D02*
X0199397Y0049564D01*
X0199386Y0049602D02*
X0190463Y0049602D01*
X0190475Y0049640D02*
X0199375Y0049640D01*
X0199364Y0049678D02*
X0190486Y0049678D01*
X0190498Y0049715D02*
X0199352Y0049715D01*
X0199341Y0049753D02*
X0190510Y0049753D01*
X0190521Y0049791D02*
X0199330Y0049791D01*
X0199319Y0049829D02*
X0190533Y0049829D01*
X0190545Y0049867D02*
X0199307Y0049867D01*
X0199296Y0049905D02*
X0190556Y0049905D01*
X0190568Y0049943D02*
X0199285Y0049943D01*
X0199274Y0049981D02*
X0190579Y0049981D01*
X0190599Y0050019D02*
X0199252Y0050019D01*
X0199231Y0050056D02*
X0190621Y0050056D01*
X0190643Y0050094D02*
X0199210Y0050094D01*
X0199188Y0050132D02*
X0190665Y0050132D01*
X0190687Y0050170D02*
X0199167Y0050170D01*
X0199146Y0050208D02*
X0190708Y0050208D01*
X0190730Y0050246D02*
X0199124Y0050246D01*
X0199103Y0050284D02*
X0190752Y0050284D01*
X0190774Y0050322D02*
X0199082Y0050322D01*
X0199060Y0050359D02*
X0190796Y0050359D01*
X0190817Y0050397D02*
X0199039Y0050397D01*
X0199013Y0050435D02*
X0190841Y0050435D01*
X0190876Y0050473D02*
X0198978Y0050473D01*
X0198944Y0050511D02*
X0190911Y0050511D01*
X0190946Y0050549D02*
X0198910Y0050549D01*
X0198875Y0050587D02*
X0190981Y0050587D01*
X0191016Y0050625D02*
X0198841Y0050625D01*
X0198806Y0050663D02*
X0191052Y0050663D01*
X0191087Y0050700D02*
X0198772Y0050700D01*
X0198737Y0050738D02*
X0191122Y0050738D01*
X0191157Y0050776D02*
X0198703Y0050776D01*
X0198659Y0050814D02*
X0191198Y0050814D01*
X0191253Y0050852D02*
X0198604Y0050852D01*
X0198550Y0050890D02*
X0191308Y0050890D01*
X0191364Y0050928D02*
X0198496Y0050928D01*
X0198441Y0050966D02*
X0191419Y0050966D01*
X0191474Y0051003D02*
X0198387Y0051003D01*
X0198333Y0051041D02*
X0191530Y0051041D01*
X0191585Y0051079D02*
X0198278Y0051079D01*
X0198190Y0051117D02*
X0191669Y0051117D01*
X0191765Y0051155D02*
X0198096Y0051155D01*
X0198003Y0051193D02*
X0191861Y0051193D01*
X0191957Y0051231D02*
X0197909Y0051231D01*
X0197816Y0051269D02*
X0192053Y0051269D01*
X0192266Y0051306D02*
X0197600Y0051306D01*
X0197366Y0051344D02*
X0192514Y0051344D01*
D19*
X0044581Y0044261D02*
X0044581Y0037227D01*
X0043059Y0037227D01*
X0043059Y0044261D01*
X0044581Y0044261D01*
X0044581Y0038748D02*
X0043059Y0038748D01*
X0043059Y0040269D02*
X0044581Y0040269D01*
X0044581Y0041790D02*
X0043059Y0041790D01*
X0043059Y0043311D02*
X0044581Y0043311D01*
X0039581Y0044261D02*
X0039581Y0037227D01*
X0038059Y0037227D01*
X0038059Y0044261D01*
X0039581Y0044261D01*
X0039581Y0038748D02*
X0038059Y0038748D01*
X0038059Y0040269D02*
X0039581Y0040269D01*
X0039581Y0041790D02*
X0038059Y0041790D01*
X0038059Y0043311D02*
X0039581Y0043311D01*
X0034581Y0044261D02*
X0034581Y0037227D01*
X0033059Y0037227D01*
X0033059Y0044261D01*
X0034581Y0044261D01*
X0034581Y0038748D02*
X0033059Y0038748D01*
X0033059Y0040269D02*
X0034581Y0040269D01*
X0034581Y0041790D02*
X0033059Y0041790D01*
X0033059Y0043311D02*
X0034581Y0043311D01*
X0029581Y0044261D02*
X0029581Y0037227D01*
X0028059Y0037227D01*
X0028059Y0044261D01*
X0029581Y0044261D01*
X0029581Y0038748D02*
X0028059Y0038748D01*
X0028059Y0040269D02*
X0029581Y0040269D01*
X0029581Y0041790D02*
X0028059Y0041790D01*
X0028059Y0043311D02*
X0029581Y0043311D01*
X0029581Y0024773D02*
X0029581Y0017739D01*
X0028059Y0017739D01*
X0028059Y0024773D01*
X0029581Y0024773D01*
X0029581Y0019260D02*
X0028059Y0019260D01*
X0028059Y0020781D02*
X0029581Y0020781D01*
X0029581Y0022302D02*
X0028059Y0022302D01*
X0028059Y0023823D02*
X0029581Y0023823D01*
X0034581Y0024773D02*
X0034581Y0017739D01*
X0033059Y0017739D01*
X0033059Y0024773D01*
X0034581Y0024773D01*
X0034581Y0019260D02*
X0033059Y0019260D01*
X0033059Y0020781D02*
X0034581Y0020781D01*
X0034581Y0022302D02*
X0033059Y0022302D01*
X0033059Y0023823D02*
X0034581Y0023823D01*
X0039581Y0024773D02*
X0039581Y0017739D01*
X0038059Y0017739D01*
X0038059Y0024773D01*
X0039581Y0024773D01*
X0039581Y0019260D02*
X0038059Y0019260D01*
X0038059Y0020781D02*
X0039581Y0020781D01*
X0039581Y0022302D02*
X0038059Y0022302D01*
X0038059Y0023823D02*
X0039581Y0023823D01*
X0044581Y0024773D02*
X0044581Y0017739D01*
X0043059Y0017739D01*
X0043059Y0024773D01*
X0044581Y0024773D01*
X0044581Y0019260D02*
X0043059Y0019260D01*
X0043059Y0020781D02*
X0044581Y0020781D01*
X0044581Y0022302D02*
X0043059Y0022302D01*
X0043059Y0023823D02*
X0044581Y0023823D01*
D20*
X0048320Y0089654D03*
X0048320Y0096346D03*
X0023320Y0117654D03*
X0023320Y0124346D03*
X0170320Y0089346D03*
X0179320Y0089346D03*
X0179320Y0082654D03*
X0170320Y0082654D03*
X0206320Y0014346D03*
X0206320Y0007654D03*
D21*
X0061320Y0009976D03*
X0061320Y0032024D03*
D22*
X0042544Y0107551D02*
X0037654Y0107551D01*
X0037654Y0109331D01*
X0042544Y0109331D01*
X0042544Y0107551D01*
X0042544Y0108144D02*
X0037654Y0108144D01*
X0037654Y0108737D02*
X0042544Y0108737D01*
X0042544Y0109330D02*
X0037654Y0109330D01*
X0034985Y0107551D02*
X0030095Y0107551D01*
X0030095Y0109331D01*
X0034985Y0109331D01*
X0034985Y0107551D01*
X0034985Y0108144D02*
X0030095Y0108144D01*
X0030095Y0108737D02*
X0034985Y0108737D01*
X0034985Y0109330D02*
X0030095Y0109330D01*
X0030095Y0110110D02*
X0034985Y0110110D01*
X0030095Y0110110D02*
X0030095Y0111890D01*
X0034985Y0111890D01*
X0034985Y0110110D01*
X0034985Y0110703D02*
X0030095Y0110703D01*
X0030095Y0111296D02*
X0034985Y0111296D01*
X0034985Y0111889D02*
X0030095Y0111889D01*
X0030095Y0112669D02*
X0034985Y0112669D01*
X0030095Y0112669D02*
X0030095Y0114449D01*
X0034985Y0114449D01*
X0034985Y0112669D01*
X0034985Y0113262D02*
X0030095Y0113262D01*
X0030095Y0113855D02*
X0034985Y0113855D01*
X0034985Y0114448D02*
X0030095Y0114448D01*
X0037654Y0112669D02*
X0042544Y0112669D01*
X0037654Y0112669D02*
X0037654Y0114449D01*
X0042544Y0114449D01*
X0042544Y0112669D01*
X0042544Y0113262D02*
X0037654Y0113262D01*
X0037654Y0113855D02*
X0042544Y0113855D01*
X0042544Y0114448D02*
X0037654Y0114448D01*
D23*
X0163361Y0115061D02*
X0163361Y0111057D01*
X0161799Y0111057D01*
X0161799Y0115061D01*
X0163361Y0115061D01*
X0163361Y0112617D02*
X0161799Y0112617D01*
X0161799Y0114177D02*
X0163361Y0114177D01*
X0167101Y0115061D02*
X0167101Y0111057D01*
X0165539Y0111057D01*
X0165539Y0115061D01*
X0167101Y0115061D01*
X0167101Y0112617D02*
X0165539Y0112617D01*
X0165539Y0114177D02*
X0167101Y0114177D01*
X0170841Y0115061D02*
X0170841Y0111057D01*
X0169279Y0111057D01*
X0169279Y0115061D01*
X0170841Y0115061D01*
X0170841Y0112617D02*
X0169279Y0112617D01*
X0169279Y0114177D02*
X0170841Y0114177D01*
X0170841Y0120939D02*
X0170841Y0124943D01*
X0170841Y0120939D02*
X0169279Y0120939D01*
X0169279Y0124943D01*
X0170841Y0124943D01*
X0170841Y0122499D02*
X0169279Y0122499D01*
X0169279Y0124059D02*
X0170841Y0124059D01*
X0163361Y0124943D02*
X0163361Y0120939D01*
X0161799Y0120939D01*
X0161799Y0124943D01*
X0163361Y0124943D01*
X0163361Y0122499D02*
X0161799Y0122499D01*
X0161799Y0124059D02*
X0163361Y0124059D01*
D24*
X0031320Y0076000D03*
X0031320Y0066000D03*
X0031320Y0056000D03*
D25*
X0054527Y0065942D03*
X0168113Y0066058D03*
D26*
X0111320Y0103500D03*
X0111320Y0028500D03*
D27*
X0173982Y0026104D02*
X0178776Y0026104D01*
X0173982Y0026104D02*
X0173982Y0028416D01*
X0178776Y0028416D01*
X0178776Y0026104D01*
X0178776Y0026874D02*
X0173982Y0026874D01*
X0173982Y0027644D02*
X0178776Y0027644D01*
X0178776Y0028414D02*
X0173982Y0028414D01*
X0173982Y0029844D02*
X0178776Y0029844D01*
X0173982Y0029844D02*
X0173982Y0032156D01*
X0178776Y0032156D01*
X0178776Y0029844D01*
X0178776Y0030614D02*
X0173982Y0030614D01*
X0173982Y0031384D02*
X0178776Y0031384D01*
X0178776Y0032154D02*
X0173982Y0032154D01*
X0173982Y0033584D02*
X0178776Y0033584D01*
X0173982Y0033584D02*
X0173982Y0035896D01*
X0178776Y0035896D01*
X0178776Y0033584D01*
X0178776Y0034354D02*
X0173982Y0034354D01*
X0173982Y0035124D02*
X0178776Y0035124D01*
X0178776Y0035894D02*
X0173982Y0035894D01*
X0183864Y0033584D02*
X0188658Y0033584D01*
X0183864Y0033584D02*
X0183864Y0035896D01*
X0188658Y0035896D01*
X0188658Y0033584D01*
X0188658Y0034354D02*
X0183864Y0034354D01*
X0183864Y0035124D02*
X0188658Y0035124D01*
X0188658Y0035894D02*
X0183864Y0035894D01*
X0183864Y0029844D02*
X0188658Y0029844D01*
X0183864Y0029844D02*
X0183864Y0032156D01*
X0188658Y0032156D01*
X0188658Y0029844D01*
X0188658Y0030614D02*
X0183864Y0030614D01*
X0183864Y0031384D02*
X0188658Y0031384D01*
X0188658Y0032154D02*
X0183864Y0032154D01*
X0183864Y0026104D02*
X0188658Y0026104D01*
X0183864Y0026104D02*
X0183864Y0028416D01*
X0188658Y0028416D01*
X0188658Y0026104D01*
X0188658Y0026874D02*
X0183864Y0026874D01*
X0183864Y0027644D02*
X0188658Y0027644D01*
X0188658Y0028414D02*
X0183864Y0028414D01*
D28*
X0023320Y0009000D03*
X0049320Y0008000D03*
X0074320Y0008000D03*
X0081320Y0008000D03*
X0076320Y0021000D03*
X0050320Y0024000D03*
X0061320Y0041000D03*
X0086320Y0056000D03*
X0091320Y0056000D03*
X0096320Y0056000D03*
X0101320Y0056000D03*
X0106320Y0056000D03*
X0111320Y0056000D03*
X0116320Y0056000D03*
X0121320Y0056000D03*
X0126320Y0056000D03*
X0131320Y0056000D03*
X0136320Y0056000D03*
X0136320Y0061000D03*
X0131320Y0061000D03*
X0126320Y0061000D03*
X0121320Y0061000D03*
X0116320Y0061000D03*
X0111320Y0061000D03*
X0106320Y0061000D03*
X0101320Y0061000D03*
X0096320Y0061000D03*
X0091320Y0061000D03*
X0086320Y0061000D03*
X0086320Y0066000D03*
X0091320Y0066000D03*
X0096320Y0066000D03*
X0101320Y0066000D03*
X0106320Y0066000D03*
X0111320Y0066000D03*
X0116320Y0066000D03*
X0121320Y0066000D03*
X0126320Y0066000D03*
X0131320Y0066000D03*
X0136320Y0066000D03*
X0136320Y0071000D03*
X0131320Y0071000D03*
X0126320Y0071000D03*
X0121320Y0071000D03*
X0116320Y0071000D03*
X0111320Y0071000D03*
X0106320Y0071000D03*
X0101320Y0071000D03*
X0096320Y0071000D03*
X0091320Y0071000D03*
X0086320Y0071000D03*
X0086320Y0076000D03*
X0091320Y0076000D03*
X0096320Y0076000D03*
X0101320Y0076000D03*
X0106320Y0076000D03*
X0111320Y0076000D03*
X0116320Y0076000D03*
X0121320Y0076000D03*
X0126320Y0076000D03*
X0131320Y0076000D03*
X0136320Y0076000D03*
X0171320Y0075000D03*
X0186320Y0086000D03*
X0206320Y0071000D03*
X0206320Y0061000D03*
X0180320Y0051000D03*
X0171320Y0055000D03*
X0189320Y0044000D03*
X0180320Y0040000D03*
X0168320Y0039000D03*
X0146320Y0031000D03*
X0141320Y0026000D03*
X0146320Y0021000D03*
X0163320Y0024000D03*
X0180320Y0018000D03*
X0188320Y0019000D03*
X0194320Y0019000D03*
X0194320Y0013000D03*
X0194320Y0033000D03*
X0200320Y0033000D03*
X0131320Y0051000D03*
X0126320Y0051000D03*
X0121320Y0051000D03*
X0116320Y0051000D03*
X0111320Y0051000D03*
X0106320Y0051000D03*
X0101320Y0051000D03*
X0096320Y0051000D03*
X0091320Y0051000D03*
X0079320Y0081000D03*
X0061320Y0089000D03*
X0040320Y0102000D03*
X0034320Y0102000D03*
X0023320Y0089000D03*
X0040320Y0118000D03*
X0046320Y0121000D03*
X0090320Y0115000D03*
X0206320Y0111000D03*
M02*
