G75*
%MOIN*%
%OFA0B0*%
%FSLAX25Y25*%
%IPPOS*%
%LPD*%
%AMOC8*
5,1,8,0,0,1.08239X$1,22.5*
%
%ADD10C,0.03937*%
%ADD11C,0.05150*%
%ADD12C,0.01600*%
%ADD13C,0.03569*%
D10*
X0197088Y0048992D02*
X0197088Y0048992D01*
X0192756Y0048992D01*
X0192756Y0048992D01*
X0197088Y0048992D01*
X0212560Y0048992D02*
X0212560Y0048992D01*
X0210198Y0048992D01*
X0210198Y0048992D01*
X0212560Y0048992D01*
X0212560Y0083008D02*
X0212560Y0083008D01*
X0210198Y0083008D01*
X0210198Y0083008D01*
X0212560Y0083008D01*
X0197088Y0083008D02*
X0197088Y0083008D01*
X0192756Y0083008D01*
X0192756Y0083008D01*
X0197088Y0083008D01*
D11*
X0031320Y0076000D03*
X0031320Y0066000D03*
X0031320Y0056000D03*
D12*
X0035695Y0056000D01*
X0035695Y0056344D01*
X0035587Y0057024D01*
X0035374Y0057679D01*
X0035062Y0058293D01*
X0034657Y0058850D01*
X0034170Y0059337D01*
X0033613Y0059742D01*
X0032999Y0060054D01*
X0032344Y0060267D01*
X0031664Y0060375D01*
X0031320Y0060375D01*
X0031320Y0056000D01*
X0031320Y0056000D01*
X0035695Y0056000D01*
X0035695Y0055656D01*
X0035587Y0054976D01*
X0035374Y0054321D01*
X0035062Y0053707D01*
X0034657Y0053150D01*
X0034170Y0052663D01*
X0033613Y0052258D01*
X0032999Y0051946D01*
X0032344Y0051733D01*
X0031664Y0051625D01*
X0031320Y0051625D01*
X0031320Y0056000D01*
X0031320Y0056000D01*
X0031320Y0056000D01*
X0031320Y0060375D01*
X0030976Y0060375D01*
X0030296Y0060267D01*
X0029641Y0060054D01*
X0029027Y0059742D01*
X0028470Y0059337D01*
X0027983Y0058850D01*
X0027578Y0058293D01*
X0027266Y0057679D01*
X0027053Y0057024D01*
X0026945Y0056344D01*
X0026945Y0056000D01*
X0031320Y0056000D01*
X0031320Y0051625D01*
X0030976Y0051625D01*
X0030296Y0051733D01*
X0029641Y0051946D01*
X0029027Y0052258D01*
X0028470Y0052663D01*
X0027983Y0053150D01*
X0027578Y0053707D01*
X0027266Y0054321D01*
X0027053Y0054976D01*
X0026945Y0055656D01*
X0026945Y0056000D01*
X0031320Y0056000D01*
X0031320Y0056000D01*
X0031320Y0055349D02*
X0031320Y0055349D01*
X0031320Y0053751D02*
X0031320Y0053751D01*
X0031320Y0052152D02*
X0031320Y0052152D01*
X0033405Y0052152D02*
X0058120Y0052152D01*
X0058120Y0050554D02*
X0026520Y0050554D01*
X0026520Y0052152D02*
X0029235Y0052152D01*
X0027556Y0053751D02*
X0026520Y0053751D01*
X0026520Y0055349D02*
X0026994Y0055349D01*
X0027041Y0056948D02*
X0026520Y0056948D01*
X0026520Y0058546D02*
X0027762Y0058546D01*
X0026520Y0060145D02*
X0029920Y0060145D01*
X0030330Y0061025D02*
X0028502Y0061783D01*
X0027103Y0063182D01*
X0026520Y0064588D01*
X0026520Y0011717D01*
X0026867Y0011370D01*
X0027504Y0009832D01*
X0027504Y0008168D01*
X0026867Y0006630D01*
X0026237Y0006000D01*
X0211320Y0006000D01*
X0211320Y0048808D01*
X0211195Y0048808D01*
X0211195Y0045224D01*
X0209827Y0045224D01*
X0209099Y0045368D01*
X0208413Y0045653D01*
X0207796Y0046065D01*
X0207271Y0046590D01*
X0206858Y0047207D01*
X0206574Y0047893D01*
X0206429Y0048621D01*
X0206429Y0048808D01*
X0211195Y0048808D01*
X0211195Y0049176D01*
X0206429Y0049176D01*
X0206429Y0049363D01*
X0206574Y0050091D01*
X0206858Y0050777D01*
X0207271Y0051394D01*
X0207796Y0051919D01*
X0208413Y0052332D01*
X0209099Y0052616D01*
X0209827Y0052761D01*
X0211195Y0052761D01*
X0211195Y0049176D01*
X0211320Y0049176D01*
X0211320Y0082824D01*
X0211195Y0082824D01*
X0206429Y0082824D01*
X0206429Y0082637D01*
X0206574Y0081909D01*
X0206858Y0081223D01*
X0207271Y0080606D01*
X0207796Y0080081D01*
X0208413Y0079668D01*
X0209099Y0079384D01*
X0209827Y0079239D01*
X0211195Y0079239D01*
X0211195Y0082824D01*
X0211195Y0083192D01*
X0211195Y0086776D01*
X0209827Y0086776D01*
X0209099Y0086632D01*
X0208413Y0086347D01*
X0207796Y0085935D01*
X0207271Y0085410D01*
X0206858Y0084793D01*
X0206574Y0084107D01*
X0206429Y0083379D01*
X0206429Y0083192D01*
X0211195Y0083192D01*
X0211320Y0083192D01*
X0211320Y0126000D01*
X0021320Y0126000D01*
X0021320Y0092701D01*
X0022488Y0093184D01*
X0024152Y0093184D01*
X0025690Y0092547D01*
X0026037Y0092200D01*
X0032994Y0092200D01*
X0037120Y0096325D01*
X0037120Y0098883D01*
X0036690Y0098453D01*
X0035152Y0097816D01*
X0033488Y0097816D01*
X0031950Y0098453D01*
X0030773Y0099630D01*
X0030136Y0101168D01*
X0030136Y0102832D01*
X0030773Y0104370D01*
X0031120Y0104717D01*
X0031120Y0112637D01*
X0031607Y0113813D01*
X0036136Y0118341D01*
X0036136Y0118832D01*
X0036773Y0120370D01*
X0037950Y0121547D01*
X0039488Y0122184D01*
X0041152Y0122184D01*
X0042136Y0121777D01*
X0042136Y0121832D01*
X0042773Y0123370D01*
X0043950Y0124547D01*
X0045488Y0125184D01*
X0047152Y0125184D01*
X0048690Y0124547D01*
X0049867Y0123370D01*
X0050504Y0121832D01*
X0050504Y0120168D01*
X0049867Y0118630D01*
X0049520Y0118283D01*
X0049520Y0088363D01*
X0049033Y0087187D01*
X0043133Y0081287D01*
X0041956Y0080800D01*
X0032731Y0080800D01*
X0034138Y0080217D01*
X0035537Y0078818D01*
X0036295Y0076990D01*
X0036295Y0075010D01*
X0035537Y0073182D01*
X0034138Y0071783D01*
X0032309Y0071025D01*
X0030330Y0071025D01*
X0028502Y0071783D01*
X0027103Y0073182D01*
X0026520Y0074588D01*
X0026520Y0067412D01*
X0027103Y0068818D01*
X0028502Y0070217D01*
X0030330Y0070975D01*
X0032309Y0070975D01*
X0034138Y0070217D01*
X0035537Y0068818D01*
X0036295Y0066990D01*
X0036295Y0065010D01*
X0035537Y0063182D01*
X0034138Y0061783D01*
X0032309Y0061025D01*
X0030330Y0061025D01*
X0031320Y0060145D02*
X0031320Y0060145D01*
X0032720Y0060145D02*
X0058120Y0060145D01*
X0058120Y0061743D02*
X0034043Y0061743D01*
X0035604Y0063342D02*
X0058120Y0063342D01*
X0058120Y0064940D02*
X0036266Y0064940D01*
X0036295Y0066539D02*
X0058120Y0066539D01*
X0058120Y0068137D02*
X0035819Y0068137D01*
X0034619Y0069736D02*
X0058120Y0069736D01*
X0058120Y0071334D02*
X0033056Y0071334D01*
X0035288Y0072933D02*
X0058120Y0072933D01*
X0058120Y0074532D02*
X0036096Y0074532D01*
X0036295Y0076130D02*
X0058120Y0076130D01*
X0058120Y0077729D02*
X0035989Y0077729D01*
X0035028Y0079327D02*
X0058120Y0079327D01*
X0058120Y0080926D02*
X0042260Y0080926D01*
X0044370Y0082524D02*
X0058120Y0082524D01*
X0058120Y0084123D02*
X0045968Y0084123D01*
X0047567Y0085721D02*
X0058120Y0085721D01*
X0058120Y0086283D02*
X0057773Y0086630D01*
X0057136Y0088168D01*
X0057136Y0089832D01*
X0057773Y0091370D01*
X0058950Y0092547D01*
X0060488Y0093184D01*
X0062152Y0093184D01*
X0063690Y0092547D01*
X0064867Y0091370D01*
X0065504Y0089832D01*
X0065504Y0088168D01*
X0064867Y0086630D01*
X0064520Y0086283D01*
X0064520Y0043717D01*
X0064867Y0043370D01*
X0065504Y0041832D01*
X0065504Y0040168D01*
X0064867Y0038630D01*
X0063690Y0037453D01*
X0062152Y0036816D01*
X0060488Y0036816D01*
X0058950Y0037453D01*
X0057773Y0038630D01*
X0057136Y0040168D01*
X0057136Y0041832D01*
X0057773Y0043370D01*
X0058120Y0043717D01*
X0058120Y0086283D01*
X0057487Y0087320D02*
X0049088Y0087320D01*
X0049520Y0088918D02*
X0057136Y0088918D01*
X0057419Y0090517D02*
X0049520Y0090517D01*
X0049520Y0092115D02*
X0058518Y0092115D01*
X0061320Y0089000D02*
X0061320Y0041000D01*
X0065504Y0040963D02*
X0068120Y0040963D01*
X0068120Y0040363D02*
X0068607Y0039187D01*
X0069507Y0038287D01*
X0073120Y0034675D01*
X0073120Y0023717D01*
X0072773Y0023370D01*
X0072136Y0021832D01*
X0072136Y0020168D01*
X0072773Y0018630D01*
X0073950Y0017453D01*
X0075488Y0016816D01*
X0077152Y0016816D01*
X0078690Y0017453D01*
X0079867Y0018630D01*
X0080504Y0020168D01*
X0080504Y0021832D01*
X0079867Y0023370D01*
X0079520Y0023717D01*
X0079520Y0035363D01*
X0079520Y0036637D01*
X0079033Y0037813D01*
X0074520Y0042325D01*
X0074520Y0094675D01*
X0090661Y0110816D01*
X0091152Y0110816D01*
X0092690Y0111453D01*
X0093867Y0112630D01*
X0094504Y0114168D01*
X0094504Y0115832D01*
X0093867Y0117370D01*
X0092690Y0118547D01*
X0091152Y0119184D01*
X0089488Y0119184D01*
X0087950Y0118547D01*
X0086773Y0117370D01*
X0086136Y0115832D01*
X0086136Y0115341D01*
X0068607Y0097813D01*
X0068120Y0096637D01*
X0068120Y0040363D01*
X0068534Y0039364D02*
X0065171Y0039364D01*
X0064003Y0037766D02*
X0070029Y0037766D01*
X0071627Y0036167D02*
X0026520Y0036167D01*
X0026520Y0034569D02*
X0073120Y0034569D01*
X0073120Y0032970D02*
X0026520Y0032970D01*
X0026520Y0031372D02*
X0073120Y0031372D01*
X0073120Y0029773D02*
X0026520Y0029773D01*
X0026520Y0028175D02*
X0073120Y0028175D01*
X0073120Y0026576D02*
X0026520Y0026576D01*
X0026520Y0024978D02*
X0073120Y0024978D01*
X0072782Y0023379D02*
X0026520Y0023379D01*
X0026520Y0021781D02*
X0072136Y0021781D01*
X0072136Y0020182D02*
X0026520Y0020182D01*
X0026520Y0018584D02*
X0072819Y0018584D01*
X0075079Y0016985D02*
X0026520Y0016985D01*
X0026520Y0015387D02*
X0098584Y0015387D01*
X0099271Y0014594D02*
X0099271Y0014594D01*
X0103676Y0011763D01*
X0108701Y0010287D01*
X0113939Y0010287D01*
X0118964Y0011763D01*
X0123369Y0014594D01*
X0123369Y0014594D01*
X0126799Y0018552D01*
X0126799Y0018552D01*
X0128975Y0023316D01*
X0129720Y0028500D01*
X0128975Y0033684D01*
X0126799Y0038448D01*
X0123369Y0042406D01*
X0118964Y0045237D01*
X0118964Y0045237D01*
X0113939Y0046713D01*
X0108701Y0046713D01*
X0103676Y0045237D01*
X0099271Y0042406D01*
X0099271Y0042406D01*
X0099271Y0042406D01*
X0095841Y0038448D01*
X0095841Y0038448D01*
X0093665Y0033684D01*
X0092920Y0028500D01*
X0093665Y0023316D01*
X0095841Y0018552D01*
X0099271Y0014594D01*
X0100525Y0013788D02*
X0026520Y0013788D01*
X0026520Y0012190D02*
X0103012Y0012190D01*
X0107667Y0010591D02*
X0027190Y0010591D01*
X0027504Y0008993D02*
X0211320Y0008993D01*
X0211320Y0007394D02*
X0027184Y0007394D01*
X0023320Y0009000D02*
X0023320Y0081000D01*
X0026320Y0084000D01*
X0041320Y0084000D01*
X0046320Y0089000D01*
X0046320Y0121000D01*
X0042407Y0122487D02*
X0021320Y0122487D01*
X0021320Y0120888D02*
X0037291Y0120888D01*
X0036325Y0119290D02*
X0021320Y0119290D01*
X0021320Y0117691D02*
X0035486Y0117691D01*
X0033887Y0116093D02*
X0021320Y0116093D01*
X0021320Y0114494D02*
X0032289Y0114494D01*
X0031227Y0112896D02*
X0021320Y0112896D01*
X0021320Y0111297D02*
X0031120Y0111297D01*
X0031120Y0109699D02*
X0021320Y0109699D01*
X0021320Y0108100D02*
X0031120Y0108100D01*
X0031120Y0106502D02*
X0021320Y0106502D01*
X0021320Y0104903D02*
X0031120Y0104903D01*
X0030331Y0103305D02*
X0021320Y0103305D01*
X0021320Y0101706D02*
X0030136Y0101706D01*
X0030575Y0100108D02*
X0021320Y0100108D01*
X0021320Y0098509D02*
X0031893Y0098509D01*
X0036747Y0098509D02*
X0037120Y0098509D01*
X0037120Y0096911D02*
X0021320Y0096911D01*
X0021320Y0095312D02*
X0036107Y0095312D01*
X0034508Y0093714D02*
X0021320Y0093714D01*
X0023320Y0089000D02*
X0034320Y0089000D01*
X0040320Y0095000D01*
X0040320Y0102000D01*
X0034320Y0102000D02*
X0034320Y0112000D01*
X0040320Y0118000D01*
X0049520Y0117691D02*
X0087094Y0117691D01*
X0086244Y0116093D02*
X0049520Y0116093D01*
X0049520Y0114494D02*
X0085289Y0114494D01*
X0083690Y0112896D02*
X0049520Y0112896D01*
X0049520Y0111297D02*
X0082092Y0111297D01*
X0080493Y0109699D02*
X0049520Y0109699D01*
X0049520Y0108100D02*
X0078895Y0108100D01*
X0077296Y0106502D02*
X0049520Y0106502D01*
X0049520Y0104903D02*
X0075698Y0104903D01*
X0074099Y0103305D02*
X0049520Y0103305D01*
X0049520Y0101706D02*
X0072501Y0101706D01*
X0070902Y0100108D02*
X0049520Y0100108D01*
X0049520Y0098509D02*
X0069304Y0098509D01*
X0068234Y0096911D02*
X0049520Y0096911D01*
X0049520Y0095312D02*
X0068120Y0095312D01*
X0071320Y0096000D02*
X0090320Y0115000D01*
X0093546Y0117691D02*
X0099715Y0117691D01*
X0099271Y0117406D02*
X0099271Y0117406D01*
X0099271Y0117406D01*
X0103676Y0120237D01*
X0103676Y0120237D01*
X0108701Y0121713D01*
X0113939Y0121713D01*
X0113939Y0121713D01*
X0118964Y0120237D01*
X0123369Y0117406D01*
X0123369Y0117406D01*
X0126799Y0113448D01*
X0126799Y0113448D01*
X0128975Y0108684D01*
X0128975Y0108684D01*
X0129720Y0103500D01*
X0128975Y0098316D01*
X0126799Y0093552D01*
X0126799Y0093552D01*
X0123369Y0089594D01*
X0123369Y0089594D01*
X0118964Y0086763D01*
X0118964Y0086763D01*
X0113939Y0085287D01*
X0108701Y0085287D01*
X0103676Y0086763D01*
X0103676Y0086763D01*
X0099271Y0089594D01*
X0099271Y0089594D01*
X0095841Y0093552D01*
X0095841Y0093552D01*
X0093665Y0098316D01*
X0093665Y0098316D01*
X0092920Y0103500D01*
X0092920Y0103500D01*
X0093665Y0108684D01*
X0093665Y0108684D01*
X0095841Y0113448D01*
X0095841Y0113448D01*
X0099271Y0117406D01*
X0098133Y0116093D02*
X0094396Y0116093D01*
X0094504Y0114494D02*
X0096748Y0114494D01*
X0095589Y0112896D02*
X0093977Y0112896D01*
X0094859Y0111297D02*
X0092315Y0111297D01*
X0094129Y0109699D02*
X0089544Y0109699D01*
X0087946Y0108100D02*
X0093581Y0108100D01*
X0093352Y0106502D02*
X0086347Y0106502D01*
X0084749Y0104903D02*
X0093122Y0104903D01*
X0092948Y0103305D02*
X0083150Y0103305D01*
X0081552Y0101706D02*
X0093178Y0101706D01*
X0093408Y0100108D02*
X0079953Y0100108D01*
X0078355Y0098509D02*
X0093638Y0098509D01*
X0094307Y0096911D02*
X0076756Y0096911D01*
X0075158Y0095312D02*
X0095037Y0095312D01*
X0095767Y0093714D02*
X0074520Y0093714D01*
X0074520Y0092115D02*
X0097086Y0092115D01*
X0098471Y0090517D02*
X0074520Y0090517D01*
X0074520Y0088918D02*
X0100323Y0088918D01*
X0102810Y0087320D02*
X0074520Y0087320D01*
X0074520Y0085721D02*
X0107224Y0085721D01*
X0115416Y0085721D02*
X0181516Y0085721D01*
X0182136Y0086341D02*
X0179994Y0084200D01*
X0082037Y0084200D01*
X0081690Y0084547D01*
X0080152Y0085184D01*
X0078488Y0085184D01*
X0076950Y0084547D01*
X0075773Y0083370D01*
X0075136Y0081832D01*
X0075136Y0080168D01*
X0075773Y0078630D01*
X0076950Y0077453D01*
X0078488Y0076816D01*
X0080152Y0076816D01*
X0081690Y0077453D01*
X0082037Y0077800D01*
X0181956Y0077800D01*
X0183120Y0078282D01*
X0183120Y0047200D01*
X0172683Y0047200D01*
X0171507Y0046713D01*
X0170607Y0045813D01*
X0167979Y0043184D01*
X0167488Y0043184D01*
X0165950Y0042547D01*
X0164773Y0041370D01*
X0164136Y0039832D01*
X0164136Y0038168D01*
X0164773Y0036630D01*
X0165950Y0035453D01*
X0167488Y0034816D01*
X0169152Y0034816D01*
X0170690Y0035453D01*
X0171867Y0036630D01*
X0172504Y0038168D01*
X0172504Y0038659D01*
X0174645Y0040800D01*
X0176136Y0040800D01*
X0176136Y0039168D01*
X0176773Y0037630D01*
X0177120Y0037283D01*
X0177120Y0020717D01*
X0176773Y0020370D01*
X0176136Y0018832D01*
X0176136Y0017168D01*
X0176773Y0015630D01*
X0177950Y0014453D01*
X0179488Y0013816D01*
X0181152Y0013816D01*
X0182690Y0014453D01*
X0183867Y0015630D01*
X0184504Y0017168D01*
X0184504Y0018832D01*
X0183867Y0020370D01*
X0183520Y0020717D01*
X0183520Y0037283D01*
X0183867Y0037630D01*
X0184504Y0039168D01*
X0184504Y0040800D01*
X0186603Y0040800D01*
X0186950Y0040453D01*
X0188488Y0039816D01*
X0190152Y0039816D01*
X0191690Y0040453D01*
X0192867Y0041630D01*
X0193504Y0043168D01*
X0193504Y0044832D01*
X0193342Y0045224D01*
X0194738Y0045224D01*
X0194738Y0048808D01*
X0195107Y0048808D01*
X0195107Y0045224D01*
X0197459Y0045224D01*
X0198187Y0045368D01*
X0198873Y0045653D01*
X0199490Y0046065D01*
X0200015Y0046590D01*
X0200427Y0047207D01*
X0200711Y0047893D01*
X0200856Y0048621D01*
X0200856Y0048808D01*
X0198859Y0048808D01*
X0199748Y0049176D01*
X0200856Y0049176D01*
X0200856Y0049363D01*
X0200772Y0049787D01*
X0202163Y0051178D01*
X0203088Y0053413D01*
X0203088Y0055831D01*
X0202163Y0058066D01*
X0200453Y0059776D01*
X0198218Y0060702D01*
X0195800Y0060702D01*
X0193565Y0059776D01*
X0191855Y0058066D01*
X0190929Y0055831D01*
X0190929Y0053413D01*
X0191318Y0052475D01*
X0190972Y0052332D01*
X0190355Y0051919D01*
X0189830Y0051394D01*
X0189520Y0050931D01*
X0189520Y0081069D01*
X0189830Y0080606D01*
X0190355Y0080081D01*
X0190972Y0079668D01*
X0191318Y0079525D01*
X0190929Y0078587D01*
X0190929Y0076169D01*
X0191855Y0073934D01*
X0193565Y0072224D01*
X0195800Y0071298D01*
X0198218Y0071298D01*
X0200453Y0072224D01*
X0202163Y0073934D01*
X0203088Y0076169D01*
X0203088Y0078587D01*
X0202163Y0080822D01*
X0200772Y0082213D01*
X0200856Y0082637D01*
X0200856Y0082824D01*
X0199749Y0082824D01*
X0198859Y0083192D01*
X0200856Y0083192D01*
X0200856Y0083379D01*
X0200711Y0084107D01*
X0200427Y0084793D01*
X0200015Y0085410D01*
X0199490Y0085935D01*
X0198873Y0086347D01*
X0198187Y0086632D01*
X0197459Y0086776D01*
X0195107Y0086776D01*
X0195107Y0083192D01*
X0194738Y0083192D01*
X0194738Y0086776D01*
X0192386Y0086776D01*
X0191658Y0086632D01*
X0190972Y0086347D01*
X0190504Y0086035D01*
X0190504Y0086832D01*
X0189867Y0088370D01*
X0188690Y0089547D01*
X0187152Y0090184D01*
X0185488Y0090184D01*
X0183950Y0089547D01*
X0182773Y0088370D01*
X0182136Y0086832D01*
X0182136Y0086341D01*
X0182338Y0087320D02*
X0119830Y0087320D01*
X0122317Y0088918D02*
X0183321Y0088918D01*
X0186320Y0086000D02*
X0181320Y0081000D01*
X0079320Y0081000D01*
X0075136Y0080926D02*
X0074520Y0080926D01*
X0074520Y0082524D02*
X0075422Y0082524D01*
X0074520Y0084123D02*
X0076525Y0084123D01*
X0075484Y0079327D02*
X0074520Y0079327D01*
X0074520Y0077729D02*
X0076674Y0077729D01*
X0074520Y0076130D02*
X0183120Y0076130D01*
X0183120Y0074532D02*
X0074520Y0074532D01*
X0074520Y0072933D02*
X0183120Y0072933D01*
X0183120Y0071334D02*
X0074520Y0071334D01*
X0074520Y0069736D02*
X0183120Y0069736D01*
X0183120Y0068137D02*
X0074520Y0068137D01*
X0074520Y0066539D02*
X0183120Y0066539D01*
X0183120Y0064940D02*
X0074520Y0064940D01*
X0074520Y0063342D02*
X0183120Y0063342D01*
X0183120Y0061743D02*
X0074520Y0061743D01*
X0074520Y0060145D02*
X0183120Y0060145D01*
X0183120Y0058546D02*
X0074520Y0058546D01*
X0074520Y0056948D02*
X0183120Y0056948D01*
X0183120Y0055349D02*
X0074520Y0055349D01*
X0074520Y0053751D02*
X0183120Y0053751D01*
X0183120Y0052152D02*
X0074520Y0052152D01*
X0074520Y0050554D02*
X0183120Y0050554D01*
X0183120Y0048955D02*
X0074520Y0048955D01*
X0074520Y0047357D02*
X0183120Y0047357D01*
X0186320Y0047000D02*
X0189320Y0044000D01*
X0173320Y0044000D01*
X0168320Y0039000D01*
X0171405Y0036167D02*
X0177120Y0036167D01*
X0177120Y0034569D02*
X0128571Y0034569D01*
X0128975Y0033684D02*
X0128975Y0033684D01*
X0129077Y0032970D02*
X0177120Y0032970D01*
X0177120Y0031372D02*
X0129307Y0031372D01*
X0129537Y0029773D02*
X0177120Y0029773D01*
X0177120Y0028175D02*
X0129673Y0028175D01*
X0129443Y0026576D02*
X0177120Y0026576D01*
X0177120Y0024978D02*
X0129214Y0024978D01*
X0128984Y0023379D02*
X0177120Y0023379D01*
X0177120Y0021781D02*
X0128273Y0021781D01*
X0128975Y0023316D02*
X0128975Y0023316D01*
X0127543Y0020182D02*
X0176695Y0020182D01*
X0176136Y0018584D02*
X0126813Y0018584D01*
X0125441Y0016985D02*
X0176211Y0016985D01*
X0177016Y0015387D02*
X0124056Y0015387D01*
X0123369Y0014594D02*
X0123369Y0014594D01*
X0122115Y0013788D02*
X0211320Y0013788D01*
X0211320Y0012190D02*
X0119628Y0012190D01*
X0114973Y0010591D02*
X0211320Y0010591D01*
X0211320Y0015387D02*
X0183624Y0015387D01*
X0184429Y0016985D02*
X0211320Y0016985D01*
X0211320Y0018584D02*
X0184504Y0018584D01*
X0183945Y0020182D02*
X0211320Y0020182D01*
X0211320Y0021781D02*
X0183520Y0021781D01*
X0183520Y0023379D02*
X0211320Y0023379D01*
X0211320Y0024978D02*
X0183520Y0024978D01*
X0183520Y0026576D02*
X0211320Y0026576D01*
X0211320Y0028175D02*
X0183520Y0028175D01*
X0183520Y0029773D02*
X0211320Y0029773D01*
X0211320Y0031372D02*
X0183520Y0031372D01*
X0183520Y0032970D02*
X0211320Y0032970D01*
X0211320Y0034569D02*
X0183520Y0034569D01*
X0183520Y0036167D02*
X0211320Y0036167D01*
X0211320Y0037766D02*
X0183923Y0037766D01*
X0184504Y0039364D02*
X0211320Y0039364D01*
X0211320Y0040963D02*
X0192200Y0040963D01*
X0193253Y0042561D02*
X0211320Y0042561D01*
X0211320Y0044160D02*
X0193504Y0044160D01*
X0194738Y0045758D02*
X0195107Y0045758D01*
X0195107Y0047357D02*
X0194738Y0047357D01*
X0199031Y0045758D02*
X0208255Y0045758D01*
X0206796Y0047357D02*
X0200489Y0047357D01*
X0199215Y0048955D02*
X0211195Y0048955D01*
X0211195Y0050554D02*
X0211320Y0050554D01*
X0211320Y0052152D02*
X0211195Y0052152D01*
X0211320Y0053751D02*
X0203088Y0053751D01*
X0203088Y0055349D02*
X0211320Y0055349D01*
X0211320Y0056948D02*
X0202626Y0056948D01*
X0201682Y0058546D02*
X0211320Y0058546D01*
X0211320Y0060145D02*
X0199562Y0060145D01*
X0194456Y0060145D02*
X0189520Y0060145D01*
X0189520Y0061743D02*
X0211320Y0061743D01*
X0211320Y0063342D02*
X0189520Y0063342D01*
X0189520Y0064940D02*
X0211320Y0064940D01*
X0211320Y0066539D02*
X0189520Y0066539D01*
X0189520Y0068137D02*
X0211320Y0068137D01*
X0211320Y0069736D02*
X0189520Y0069736D01*
X0189520Y0071334D02*
X0195713Y0071334D01*
X0198305Y0071334D02*
X0211320Y0071334D01*
X0211320Y0072933D02*
X0201162Y0072933D01*
X0202410Y0074532D02*
X0211320Y0074532D01*
X0211320Y0076130D02*
X0203072Y0076130D01*
X0203088Y0077729D02*
X0211320Y0077729D01*
X0211320Y0079327D02*
X0211195Y0079327D01*
X0211195Y0080926D02*
X0211320Y0080926D01*
X0211320Y0082524D02*
X0211195Y0082524D01*
X0211195Y0084123D02*
X0211320Y0084123D01*
X0211320Y0085721D02*
X0211195Y0085721D01*
X0207582Y0085721D02*
X0199704Y0085721D01*
X0200705Y0084123D02*
X0206581Y0084123D01*
X0206452Y0082524D02*
X0200834Y0082524D01*
X0202059Y0080926D02*
X0207057Y0080926D01*
X0209386Y0079327D02*
X0202782Y0079327D01*
X0195107Y0084123D02*
X0194738Y0084123D01*
X0194738Y0085721D02*
X0195107Y0085721D01*
X0190302Y0087320D02*
X0211320Y0087320D01*
X0211320Y0088918D02*
X0189319Y0088918D01*
X0186320Y0086000D02*
X0186320Y0047000D01*
X0189520Y0052152D02*
X0190703Y0052152D01*
X0190929Y0053751D02*
X0189520Y0053751D01*
X0189520Y0055349D02*
X0190929Y0055349D01*
X0191392Y0056948D02*
X0189520Y0056948D01*
X0189520Y0058546D02*
X0192336Y0058546D01*
X0202566Y0052152D02*
X0208144Y0052152D01*
X0206766Y0050554D02*
X0201538Y0050554D01*
X0211195Y0047357D02*
X0211320Y0047357D01*
X0211320Y0045758D02*
X0211195Y0045758D01*
X0180320Y0040000D02*
X0180320Y0018000D01*
X0165235Y0036167D02*
X0127841Y0036167D01*
X0127110Y0037766D02*
X0164302Y0037766D01*
X0164136Y0039364D02*
X0126005Y0039364D01*
X0126799Y0038448D02*
X0126799Y0038448D01*
X0124620Y0040963D02*
X0164604Y0040963D01*
X0165984Y0042561D02*
X0123127Y0042561D01*
X0123369Y0042406D02*
X0123369Y0042406D01*
X0120640Y0044160D02*
X0168954Y0044160D01*
X0170553Y0045758D02*
X0117189Y0045758D01*
X0105451Y0045758D02*
X0074520Y0045758D01*
X0074520Y0044160D02*
X0102000Y0044160D01*
X0103676Y0045237D02*
X0103676Y0045237D01*
X0099513Y0042561D02*
X0074520Y0042561D01*
X0075883Y0040963D02*
X0098020Y0040963D01*
X0096635Y0039364D02*
X0077481Y0039364D01*
X0079052Y0037766D02*
X0095529Y0037766D01*
X0094799Y0036167D02*
X0079520Y0036167D01*
X0079520Y0034569D02*
X0094069Y0034569D01*
X0093665Y0033684D02*
X0093665Y0033684D01*
X0093563Y0032970D02*
X0079520Y0032970D01*
X0079520Y0031372D02*
X0093333Y0031372D01*
X0093103Y0029773D02*
X0079520Y0029773D01*
X0079520Y0028175D02*
X0092967Y0028175D01*
X0092920Y0028500D02*
X0092920Y0028500D01*
X0093197Y0026576D02*
X0079520Y0026576D01*
X0079520Y0024978D02*
X0093426Y0024978D01*
X0093656Y0023379D02*
X0079858Y0023379D01*
X0080504Y0021781D02*
X0094366Y0021781D01*
X0093665Y0023316D02*
X0093665Y0023316D01*
X0095097Y0020182D02*
X0080504Y0020182D01*
X0079821Y0018584D02*
X0095827Y0018584D01*
X0095841Y0018552D02*
X0095841Y0018552D01*
X0097199Y0016985D02*
X0077561Y0016985D01*
X0076320Y0021000D02*
X0076320Y0036000D01*
X0071320Y0041000D01*
X0071320Y0096000D01*
X0068120Y0093714D02*
X0049520Y0093714D01*
X0064122Y0092115D02*
X0068120Y0092115D01*
X0068120Y0090517D02*
X0065221Y0090517D01*
X0065504Y0088918D02*
X0068120Y0088918D01*
X0068120Y0087320D02*
X0065153Y0087320D01*
X0064520Y0085721D02*
X0068120Y0085721D01*
X0068120Y0084123D02*
X0064520Y0084123D01*
X0064520Y0082524D02*
X0068120Y0082524D01*
X0068120Y0080926D02*
X0064520Y0080926D01*
X0064520Y0079327D02*
X0068120Y0079327D01*
X0068120Y0077729D02*
X0064520Y0077729D01*
X0064520Y0076130D02*
X0068120Y0076130D01*
X0068120Y0074532D02*
X0064520Y0074532D01*
X0064520Y0072933D02*
X0068120Y0072933D01*
X0068120Y0071334D02*
X0064520Y0071334D01*
X0064520Y0069736D02*
X0068120Y0069736D01*
X0068120Y0068137D02*
X0064520Y0068137D01*
X0064520Y0066539D02*
X0068120Y0066539D01*
X0068120Y0064940D02*
X0064520Y0064940D01*
X0064520Y0063342D02*
X0068120Y0063342D01*
X0068120Y0061743D02*
X0064520Y0061743D01*
X0064520Y0060145D02*
X0068120Y0060145D01*
X0068120Y0058546D02*
X0064520Y0058546D01*
X0064520Y0056948D02*
X0068120Y0056948D01*
X0068120Y0055349D02*
X0064520Y0055349D01*
X0064520Y0053751D02*
X0068120Y0053751D01*
X0068120Y0052152D02*
X0064520Y0052152D01*
X0064520Y0050554D02*
X0068120Y0050554D01*
X0068120Y0048955D02*
X0064520Y0048955D01*
X0064520Y0047357D02*
X0068120Y0047357D01*
X0068120Y0045758D02*
X0064520Y0045758D01*
X0064520Y0044160D02*
X0068120Y0044160D01*
X0068120Y0042561D02*
X0065202Y0042561D01*
X0058120Y0044160D02*
X0026520Y0044160D01*
X0026520Y0045758D02*
X0058120Y0045758D01*
X0058120Y0047357D02*
X0026520Y0047357D01*
X0026520Y0048955D02*
X0058120Y0048955D01*
X0058120Y0053751D02*
X0035084Y0053751D01*
X0035646Y0055349D02*
X0058120Y0055349D01*
X0058120Y0056948D02*
X0035599Y0056948D01*
X0034877Y0058546D02*
X0058120Y0058546D01*
X0057438Y0042561D02*
X0026520Y0042561D01*
X0026520Y0040963D02*
X0057136Y0040963D01*
X0057468Y0039364D02*
X0026520Y0039364D01*
X0026520Y0037766D02*
X0058637Y0037766D01*
X0031320Y0056948D02*
X0031320Y0056948D01*
X0031320Y0058546D02*
X0031320Y0058546D01*
X0028596Y0061743D02*
X0026520Y0061743D01*
X0026520Y0063342D02*
X0027036Y0063342D01*
X0026821Y0068137D02*
X0026520Y0068137D01*
X0026520Y0069736D02*
X0028021Y0069736D01*
X0026520Y0071334D02*
X0029584Y0071334D01*
X0027352Y0072933D02*
X0026520Y0072933D01*
X0026520Y0074532D02*
X0026544Y0074532D01*
X0081966Y0077729D02*
X0183120Y0077729D01*
X0189520Y0077729D02*
X0190929Y0077729D01*
X0190945Y0076130D02*
X0189520Y0076130D01*
X0189520Y0074532D02*
X0191608Y0074532D01*
X0192856Y0072933D02*
X0189520Y0072933D01*
X0189520Y0079327D02*
X0191236Y0079327D01*
X0189616Y0080926D02*
X0189520Y0080926D01*
X0211320Y0090517D02*
X0124169Y0090517D01*
X0123369Y0089594D02*
X0123369Y0089594D01*
X0125554Y0092115D02*
X0211320Y0092115D01*
X0211320Y0093714D02*
X0126873Y0093714D01*
X0127603Y0095312D02*
X0211320Y0095312D01*
X0211320Y0096911D02*
X0128333Y0096911D01*
X0128975Y0098316D02*
X0128975Y0098316D01*
X0129002Y0098509D02*
X0211320Y0098509D01*
X0211320Y0100108D02*
X0129232Y0100108D01*
X0129462Y0101706D02*
X0211320Y0101706D01*
X0211320Y0103305D02*
X0129692Y0103305D01*
X0129518Y0104903D02*
X0211320Y0104903D01*
X0211320Y0106502D02*
X0129288Y0106502D01*
X0129059Y0108100D02*
X0211320Y0108100D01*
X0211320Y0109699D02*
X0128511Y0109699D01*
X0127781Y0111297D02*
X0211320Y0111297D01*
X0211320Y0112896D02*
X0127051Y0112896D01*
X0125892Y0114494D02*
X0211320Y0114494D01*
X0211320Y0116093D02*
X0124507Y0116093D01*
X0122925Y0117691D02*
X0211320Y0117691D01*
X0211320Y0119290D02*
X0120438Y0119290D01*
X0116746Y0120888D02*
X0211320Y0120888D01*
X0211320Y0122487D02*
X0050233Y0122487D01*
X0050504Y0120888D02*
X0105894Y0120888D01*
X0102202Y0119290D02*
X0050141Y0119290D01*
X0049152Y0124085D02*
X0211320Y0124085D01*
X0211320Y0125684D02*
X0021320Y0125684D01*
X0021320Y0124085D02*
X0043488Y0124085D01*
X0173210Y0039364D02*
X0176136Y0039364D01*
X0176716Y0037766D02*
X0172338Y0037766D01*
D13*
X0023320Y0009000D03*
X0049320Y0008000D03*
X0074320Y0008000D03*
X0081320Y0008000D03*
X0076320Y0021000D03*
X0050320Y0024000D03*
X0061320Y0041000D03*
X0086320Y0056000D03*
X0091320Y0056000D03*
X0096320Y0056000D03*
X0101320Y0056000D03*
X0106320Y0056000D03*
X0111320Y0056000D03*
X0116320Y0056000D03*
X0121320Y0056000D03*
X0126320Y0056000D03*
X0131320Y0056000D03*
X0136320Y0056000D03*
X0136320Y0061000D03*
X0131320Y0061000D03*
X0126320Y0061000D03*
X0121320Y0061000D03*
X0116320Y0061000D03*
X0111320Y0061000D03*
X0106320Y0061000D03*
X0101320Y0061000D03*
X0096320Y0061000D03*
X0091320Y0061000D03*
X0086320Y0061000D03*
X0086320Y0066000D03*
X0091320Y0066000D03*
X0096320Y0066000D03*
X0101320Y0066000D03*
X0106320Y0066000D03*
X0111320Y0066000D03*
X0116320Y0066000D03*
X0121320Y0066000D03*
X0126320Y0066000D03*
X0131320Y0066000D03*
X0136320Y0066000D03*
X0136320Y0071000D03*
X0131320Y0071000D03*
X0126320Y0071000D03*
X0121320Y0071000D03*
X0116320Y0071000D03*
X0111320Y0071000D03*
X0106320Y0071000D03*
X0101320Y0071000D03*
X0096320Y0071000D03*
X0091320Y0071000D03*
X0086320Y0071000D03*
X0086320Y0076000D03*
X0091320Y0076000D03*
X0096320Y0076000D03*
X0101320Y0076000D03*
X0106320Y0076000D03*
X0111320Y0076000D03*
X0116320Y0076000D03*
X0121320Y0076000D03*
X0126320Y0076000D03*
X0131320Y0076000D03*
X0136320Y0076000D03*
X0171320Y0075000D03*
X0186320Y0086000D03*
X0206320Y0071000D03*
X0206320Y0061000D03*
X0180320Y0051000D03*
X0171320Y0055000D03*
X0189320Y0044000D03*
X0180320Y0040000D03*
X0168320Y0039000D03*
X0146320Y0031000D03*
X0141320Y0026000D03*
X0146320Y0021000D03*
X0163320Y0024000D03*
X0180320Y0018000D03*
X0188320Y0019000D03*
X0194320Y0019000D03*
X0194320Y0013000D03*
X0194320Y0033000D03*
X0200320Y0033000D03*
X0131320Y0051000D03*
X0126320Y0051000D03*
X0121320Y0051000D03*
X0116320Y0051000D03*
X0111320Y0051000D03*
X0106320Y0051000D03*
X0101320Y0051000D03*
X0096320Y0051000D03*
X0091320Y0051000D03*
X0079320Y0081000D03*
X0061320Y0089000D03*
X0040320Y0102000D03*
X0034320Y0102000D03*
X0023320Y0089000D03*
X0040320Y0118000D03*
X0046320Y0121000D03*
X0090320Y0115000D03*
X0206320Y0111000D03*
M02*
