%
M48
M72
T01C0.01969
T02C0.02559
T03C0.03150
T04C0.14173
%
T01
X23320Y9000
X49320Y8000
X74320Y8000
X81320Y8000
X76320Y21000
X50320Y24000
X61320Y41000
X86320Y56000
X91320Y56000
X96320Y56000
X101320Y56000
X106320Y56000
X111320Y56000
X116320Y56000
X121320Y56000
X126320Y56000
X131320Y56000
X136320Y56000
X136320Y61000
X131320Y61000
X126320Y61000
X121320Y61000
X116320Y61000
X111320Y61000
X106320Y61000
X101320Y61000
X96320Y61000
X91320Y61000
X86320Y61000
X86320Y66000
X91320Y66000
X96320Y66000
X101320Y66000
X106320Y66000
X111320Y66000
X116320Y66000
X121320Y66000
X126320Y66000
X131320Y66000
X136320Y66000
X136320Y71000
X131320Y71000
X126320Y71000
X121320Y71000
X116320Y71000
X111320Y71000
X106320Y71000
X101320Y71000
X96320Y71000
X91320Y71000
X86320Y71000
X86320Y76000
X91320Y76000
X96320Y76000
X101320Y76000
X106320Y76000
X111320Y76000
X116320Y76000
X121320Y76000
X126320Y76000
X131320Y76000
X136320Y76000
X171320Y75000
X186320Y86000
X206320Y71000
X206320Y61000
X180320Y51000
X171320Y55000
X189320Y44000
X180320Y40000
X168320Y39000
X146320Y31000
X141320Y26000
X146320Y21000
X163320Y24000
X180320Y18000
X188320Y19000
X194320Y19000
X194320Y13000
X194320Y33000
X200320Y33000
X131320Y51000
X126320Y51000
X121320Y51000
X116320Y51000
X111320Y51000
X106320Y51000
X101320Y51000
X96320Y51000
X91320Y51000
X79320Y81000
X61320Y89000
X40320Y102000
X34320Y102000
X23320Y89000
X40320Y118000
X46320Y121000
X90320Y115000
X206320Y111000
T02
X197009Y77378
X197009Y54622
T03
X31320Y56000
X31320Y66000
X31320Y76000
T04
X111320Y103500
X111320Y28500
M30
