G75*
%MOIN*%
%OFA0B0*%
%FSLAX25Y25*%
%IPPOS*%
%LPD*%
%AMOC8*
5,1,8,0,0,1.08239X$1,22.5*
%
%ADD10C,0.05150*%
%ADD11C,0.03569*%
D10*
X0031320Y0056000D03*
X0031320Y0066000D03*
X0031320Y0076000D03*
D11*
X0023320Y0009000D03*
X0049320Y0008000D03*
X0074320Y0008000D03*
X0081320Y0008000D03*
X0076320Y0021000D03*
X0050320Y0024000D03*
X0061320Y0041000D03*
X0086320Y0056000D03*
X0091320Y0056000D03*
X0096320Y0056000D03*
X0101320Y0056000D03*
X0106320Y0056000D03*
X0111320Y0056000D03*
X0116320Y0056000D03*
X0121320Y0056000D03*
X0126320Y0056000D03*
X0131320Y0056000D03*
X0136320Y0056000D03*
X0136320Y0061000D03*
X0131320Y0061000D03*
X0126320Y0061000D03*
X0121320Y0061000D03*
X0116320Y0061000D03*
X0111320Y0061000D03*
X0106320Y0061000D03*
X0101320Y0061000D03*
X0096320Y0061000D03*
X0091320Y0061000D03*
X0086320Y0061000D03*
X0086320Y0066000D03*
X0091320Y0066000D03*
X0096320Y0066000D03*
X0101320Y0066000D03*
X0106320Y0066000D03*
X0111320Y0066000D03*
X0116320Y0066000D03*
X0121320Y0066000D03*
X0126320Y0066000D03*
X0131320Y0066000D03*
X0136320Y0066000D03*
X0136320Y0071000D03*
X0131320Y0071000D03*
X0126320Y0071000D03*
X0121320Y0071000D03*
X0116320Y0071000D03*
X0111320Y0071000D03*
X0106320Y0071000D03*
X0101320Y0071000D03*
X0096320Y0071000D03*
X0091320Y0071000D03*
X0086320Y0071000D03*
X0086320Y0076000D03*
X0091320Y0076000D03*
X0096320Y0076000D03*
X0101320Y0076000D03*
X0106320Y0076000D03*
X0111320Y0076000D03*
X0116320Y0076000D03*
X0121320Y0076000D03*
X0126320Y0076000D03*
X0131320Y0076000D03*
X0136320Y0076000D03*
X0171320Y0075000D03*
X0186320Y0086000D03*
X0206320Y0071000D03*
X0206320Y0061000D03*
X0180320Y0051000D03*
X0171320Y0055000D03*
X0189320Y0044000D03*
X0180320Y0040000D03*
X0168320Y0039000D03*
X0146320Y0031000D03*
X0141320Y0026000D03*
X0146320Y0021000D03*
X0163320Y0024000D03*
X0180320Y0018000D03*
X0188320Y0019000D03*
X0194320Y0019000D03*
X0194320Y0013000D03*
X0194320Y0033000D03*
X0200320Y0033000D03*
X0131320Y0051000D03*
X0126320Y0051000D03*
X0121320Y0051000D03*
X0116320Y0051000D03*
X0111320Y0051000D03*
X0106320Y0051000D03*
X0101320Y0051000D03*
X0096320Y0051000D03*
X0091320Y0051000D03*
X0079320Y0081000D03*
X0061320Y0089000D03*
X0040320Y0102000D03*
X0034320Y0102000D03*
X0023320Y0089000D03*
X0040320Y0118000D03*
X0046320Y0121000D03*
X0090320Y0115000D03*
X0206320Y0111000D03*
M02*
